<svg xmlns="http://www.w3.org/2000/svg" viewBox="0 0 18 14" width="18" height="14">
	<style>
		tspan { white-space:pre }
		.shp0 { fill: #ffffff } 
	</style>
	<g id="1_slide">
		<g id="Cont">
			<g id="hire us btn">
				<path id="Forma 1" class="shp0" d="M10.15 1.72C9.74 1.32 9.74 0.69 10.15 0.29C10.55 -0.1 11.19 -0.1 11.6 0.29L17.69 6.27C17.88 6.45 18 6.71 18 6.99C18 7.28 17.88 7.54 17.69 7.72L11.6 13.7C11.19 14.1 10.55 14.1 10.15 13.7C9.74 13.3 9.74 12.67 10.15 12.27L14.51 8.01L1.02 8.01C0.45 8.01 0 7.55 0 7C0 6.44 0.45 6 1.02 6L14.51 6L10.15 1.72Z" />
			</g>
		</g>
	</g>
</svg>